<?xml version="1.0" encoding="iso-8859-1"?>
<!-- Uploaded to: SVG Repo, www.svgrepo.com, Generator: SVG Repo Mixer Tools -->
<svg height="800px" width="800px" version="1.1" id="Layer_1" xmlns="http://www.w3.org/2000/svg" xmlns:xlink="http://www.w3.org/1999/xlink" 
	 viewBox="0 0 512 512" xml:space="preserve">
<path style="fill:#E56C1E;" d="M256.575,512c-9.531,0-17.258-7.727-17.258-17.258v-66.733c0-9.531,7.727-17.258,17.258-17.258
	s17.258,7.727,17.258,17.258v66.733C273.834,504.273,266.107,512,256.575,512z"/>
<path style="fill:#F2BA57;" d="M256.575,512c-9.531,0-17.258-7.727-17.258-17.258v-66.733c0-9.531,7.727-17.258,17.258-17.258V512z"
	/>
<path style="fill:#E56C1E;" d="M256.575,101.249c-9.531,0-17.258-7.727-17.258-17.258V17.258C239.317,7.727,247.044,0,256.575,0
	s17.258,7.727,17.258,17.258v66.733C273.834,93.522,266.107,101.249,256.575,101.249z"/>
<path style="fill:#F2BA57;" d="M256.575,101.249c-9.531,0-17.258-7.727-17.258-17.258V17.258C239.317,7.727,247.044,0,256.575,0
	V101.249z"/>
<g>
	<path style="fill:#F7F4A3;" d="M375.916,153.342c-4.417,0-8.834-1.684-12.203-5.056c-6.74-6.74-6.74-17.667,0-24.407l49.282-49.282
		c6.739-6.74,17.667-6.74,24.407,0s6.74,17.667,0,24.407l-49.282,49.282C384.75,151.658,380.333,153.342,375.916,153.342z"/>
	<path style="fill:#F7F4A3;" d="M494.742,272.683h-66.733c-9.531,0-17.258-7.727-17.258-17.258c0-9.531,7.727-17.258,17.258-17.258
		h66.733c9.531,0,17.258,7.727,17.258,17.258C512,264.956,504.273,272.683,494.742,272.683z"/>
	<path style="fill:#F7F4A3;" d="M425.199,440.974c-4.417,0-8.834-1.684-12.203-5.056l-49.282-49.282
		c-6.74-6.74-6.74-17.667,0-24.407c6.739-6.74,17.667-6.74,24.407,0l49.282,49.282c6.74,6.74,6.74,17.667,0,24.407
		C434.032,439.288,429.615,440.974,425.199,440.974z"/>
</g>
<g>
	<path style="fill:#F5CA47;" d="M88.285,440.974c-4.417,0-8.834-1.684-12.203-5.056c-6.74-6.74-6.74-17.667,0-24.407l49.282-49.282
		c6.739-6.74,17.667-6.74,24.407,0c6.74,6.74,6.74,17.667,0,24.407l-49.282,49.282C97.119,439.288,92.702,440.974,88.285,440.974z"
		/>
	<path style="fill:#F5CA47;" d="M87.443,272.683H17.258C7.727,272.683,0,264.956,0,255.425c0-9.531,7.727-17.258,17.258-17.258
		h70.184c9.531,0,17.258,7.727,17.258,17.258C104.701,264.956,96.974,272.683,87.443,272.683z"/>
	<path style="fill:#F5CA47;" d="M137.568,153.342c-4.417,0-8.834-1.684-12.203-5.056L76.082,99.005c-6.74-6.74-6.74-17.667,0-24.407
		c6.739-6.74,17.667-6.74,24.407,0l49.282,49.282c6.74,6.74,6.74,17.667,0,24.407C146.402,151.658,141.985,153.342,137.568,153.342z
		"/>
</g>
<g>
	<path style="fill:#E56C1E;" d="M327.28,120.587c-2.435,0-4.908-0.518-7.261-1.611c-8.644-4.017-12.395-14.28-8.378-22.924
		l29.212-62.867c4.017-8.643,14.281-12.395,22.924-8.378c8.644,4.017,12.395,14.28,8.378,22.924l-29.212,62.867
		C340.019,116.888,333.787,120.587,327.28,120.587z"/>
	<path style="fill:#E56C1E;" d="M414.1,215.062c-7.041,0-13.654-4.341-16.211-11.338c-3.272-8.953,1.332-18.862,10.285-22.135
		l65.108-23.798c8.953-3.273,18.863,1.332,22.135,10.285c3.272,8.953-1.332,18.862-10.285,22.135l-65.108,23.798
		C418.067,214.724,416.066,215.062,414.1,215.062z"/>
	<path style="fill:#E56C1E;" d="M471.531,372.459c-2.435,0-4.907-0.518-7.261-1.611l-62.867-29.21
		c-8.644-4.017-12.395-14.28-8.38-22.924c4.017-8.644,14.281-12.394,22.924-8.378l62.867,29.21
		c8.644,4.017,12.395,14.28,8.378,22.924C484.27,368.759,478.039,372.459,471.531,372.459z"/>
	<path style="fill:#E56C1E;" d="M338.001,495.164c-7.041,0-13.654-4.341-16.211-11.338l-23.798-65.109
		c-3.272-8.953,1.332-18.862,10.285-22.135c8.954-3.272,18.862,1.333,22.134,10.285l23.798,65.109
		c3.272,8.953-1.332,18.862-10.285,22.134C341.968,494.826,339.967,495.164,338.001,495.164z"/>
</g>
<g>
	<path style="fill:#F2BA57;" d="M156.793,487.499c-2.435,0-4.907-0.518-7.261-1.611c-8.644-4.017-12.395-14.28-8.378-22.924
		l29.21-62.867c4.017-8.643,14.278-12.395,22.924-8.378c8.644,4.017,12.395,14.28,8.378,22.924l-29.21,62.867
		C169.533,483.8,163.3,487.499,156.793,487.499z"/>
	<path style="fill:#F2BA57;" d="M34.1,353.957c-7.041,0-13.654-4.341-16.211-11.338c-3.272-8.953,1.332-18.862,10.285-22.135
		l65.109-23.798c8.954-3.272,18.862,1.333,22.135,10.285c3.272,8.953-1.332,18.862-10.285,22.135l-65.109,23.798
		C38.069,353.617,36.068,353.957,34.1,353.957z"/>
	<path style="fill:#F2BA57;" d="M104.618,201.972c-2.435,0-4.908-0.518-7.261-1.611L34.49,171.15
		c-8.644-4.017-12.395-14.28-8.378-22.924c4.017-8.644,14.281-12.396,22.924-8.378l62.867,29.212
		c8.644,4.017,12.395,14.28,8.378,22.924C117.358,198.273,111.126,201.972,104.618,201.972z"/>
	<path style="fill:#F2BA57;" d="M199.107,115.165c-7.041,0-13.654-4.341-16.211-11.338L159.097,38.72
		c-3.272-8.953,1.332-18.862,10.285-22.135c8.955-3.271,18.862,1.334,22.135,10.285l23.798,65.108
		c3.272,8.953-1.332,18.862-10.285,22.135C203.074,114.826,201.073,115.165,199.107,115.165z"/>
</g>
<path style="fill:#F5CA47;" d="M256.575,65.073c-104.96,0-190.351,85.391-190.351,190.351s85.391,190.351,190.351,190.351
	s190.351-85.391,190.351-190.351S361.535,65.073,256.575,65.073z"/>
<path style="fill:#F7F4A3;" d="M256.575,65.073c-104.96,0-190.351,85.391-190.351,190.351s85.391,190.351,190.351,190.351V65.073z"
	/>
</svg>